# xmcd
#
# Track frame offsets: 
#        182
#        9145
#        21640
#        32240
#        42335
#        53632
#        65600
#        75527
#        88385
#        99287
#        109415
#        120365
#        131907
#        141020
#        152932
#        163222
#        176792
#        186417
#        200002
#        210890
#        224217
#        235287
#        246852
#        259310
#        270545
#        283550
#        294812
#        305610
#        316172
#
# Disc length: 4370 seconds
#
# Revision: 17
# Processed by: cddbd v1.5.2PL0 Copyright (c) Steve Scherf et al.
# Submitted via: ExactAudioCopyFreeDBPlugin 1.0
#
DISCID=b611101d
DTITLE=Various Artist - The Complete Stax-Volt Singles, 1959-1975
DYEAR=1991
DGENRE=Soul
TTITLE0=The Veltones - Fool in Love
TTITLE1=Carla and Rufus - 'Cause I Love You
TTITLE2=Carla Thomas - Gee Whiz
TTITLE3=The Chips - You Make Me Feel So Good
TTITLE4=Carla Thomas - A Love of My Own
TTITLE5=The Mar-Keys - Last Night
TTITLE6=Rufus and Friend - I Didn't Believe
TTITLE7=Prince Conley - I'm Going Home
TTITLE8=Carla Thomas - (Mama Mama) Wish Me Good Luck
TTITLE9=The Mar-Keys - Morning After
TTITLE10=Barbara Stephens - The Life I Live
TTITLE11=The Mar-Keys - About Noon
TTITLE12=The Triumphs - Burnt Biscuits
TTITLE13=Carla Thomas - I Kinda Think He Does
TTITLE14=The Mar-Keys - Foxy
TTITLE15=William Bell - You Don't Miss Your Water
TTITLE16=William Bell - Formula of Love
TTITLE17=Macy Skipper - Goofin' Off
TTITLE18=Barbara Stephens - Wait a Minute
TTITLE19=Nick Charles - Sunday Jealous
TTITLE20=Barbara Stephens - That's the Way it is with Me
TTITLE21=The Tonettes - No Tears
TTITLE22=The Mar-Keys - Pop-Eye Stroll
TTITLE23=Nick Charles - The Three Dogwoods
TTITLE24=The Canes - Why Should I Suffer with the Blues
TTITLE25=The Mar-Keys - Whot's Happenin'!
TTITLE26=The Del-Rios - Just Across the Street
TTITLE27=The Del-Rios - There's a Love
TTITLE28=Rufus Thomas - Can't Ever Let You Go
EXTD=YEAR: 1962
EXTT0=
EXTT1=
EXTT2=
EXTT3=
EXTT4=
EXTT5=
EXTT6=
EXTT7=
EXTT8=
EXTT9=
EXTT10=
EXTT11=
EXTT12=
EXTT13=
EXTT14=
EXTT15=
EXTT16=
EXTT17=
EXTT18=
EXTT19=
EXTT20=
EXTT21=
EXTT22=
EXTT23=
EXTT24=
EXTT25=
EXTT26=
EXTT27=
EXTT28=
PLAYORDER=
